<svg xmlns="http://www.w3.org/2000/svg" viewBox="0 0 64 64" role="img" aria-labelledby="title desc">
    <title id="title">KICE Arena vector duel favicon option</title>
    <desc id="desc">A solver confronting two large crossing vector arrows on a geometry field.</desc>
    <rect width="64" height="64" rx="8" fill="#fffef9" />
    <rect x="8" y="8" width="48" height="48" fill="#ffffff" stroke="#111111" stroke-width="3.5" />
    <path d="M29 49h24M33 52V16" stroke="#111111" stroke-width="3" stroke-linecap="square" opacity=".65" />
    <path d="M31 45L53 18M53 18h-12M53 18v12" fill="none" stroke="#111111" stroke-width="5.5" stroke-linecap="square" stroke-linejoin="miter" />
    <path d="M32 25l21 20M53 45H41M53 45V33" fill="none" stroke="#111111" stroke-width="7" stroke-linecap="square" stroke-linejoin="miter" />
    <path d="M32 25l21 20M53 45H41M53 45V33" fill="none" stroke="#e8c93a" stroke-width="3.5" stroke-linecap="square" stroke-linejoin="miter" />
    <circle cx="17" cy="35" r="5" fill="#e8c93a" stroke="#111111" stroke-width="3" />
    <path d="M17 40v12M17 44l8-4M17 52l-6 5M18 52l7 5" stroke="#111111" stroke-width="4" stroke-linecap="square" />
</svg>
