<svg xmlns="http://www.w3.org/2000/svg" viewBox="0 0 64 64" role="img" aria-labelledby="title desc">
    <title id="title">KICE Arena formula combo favicon option</title>
    <desc id="desc">A solver chaining formula marks through a math battle field.</desc>
    <rect width="64" height="64" rx="8" fill="#fffef9" />
    <rect x="8" y="8" width="48" height="48" fill="#ffffff" stroke="#111111" stroke-width="3.5" />
    <circle cx="20" cy="35" r="5" fill="#e8c93a" stroke="#111111" stroke-width="3" />
    <path d="M20 40v8M20 43l-8 3M21 43l10-4M20 48l-6 6M21 48l8 6" stroke="#111111" stroke-width="3.2" stroke-linecap="square" />
    <path d="M16 27c8-12 19-15 32-9" fill="none" stroke="#e8c93a" stroke-width="5" stroke-linecap="square" />
    <path d="M35 18h9M39 14v9M40 31h10M40 38h10" stroke="#111111" stroke-width="3.2" stroke-linecap="square" />
    <path d="M29 27l5-8M34 27l-5-8" stroke="#111111" stroke-width="3.2" stroke-linecap="square" />
    <circle cx="48" cy="18" r="3" fill="#31c46b" stroke="#111111" stroke-width="2" />
</svg>
