<svg xmlns="http://www.w3.org/2000/svg" viewBox="0 0 64 64" role="img" aria-labelledby="title desc">
    <title id="title">KICE Arena trigonometry orbit favicon option</title>
    <desc id="desc">A solver dueling with a large unit circle and a clear sine-wave strike.</desc>
    <rect width="64" height="64" rx="8" fill="#fffef9" />
    <rect x="8" y="8" width="48" height="48" fill="#ffffff" stroke="#111111" stroke-width="3.5" />
    <circle cx="42" cy="25" r="15" fill="none" stroke="#111111" stroke-width="5" />
    <path d="M28 25h28M42 11v28" stroke="#111111" stroke-width="2.5" stroke-linecap="square" opacity=".72" />
    <path d="M29 48c6-10 12 10 18 0s9 8 13 2" fill="none" stroke="#111111" stroke-width="6" stroke-linecap="square" />
    <path d="M29 48c6-10 12 10 18 0s9 8 13 2" fill="none" stroke="#e8c93a" stroke-width="3.2" stroke-linecap="square" />
    <circle cx="52" cy="15" r="4" fill="#31c46b" stroke="#111111" stroke-width="2.5" />
    <circle cx="17" cy="35" r="5" fill="#e8c93a" stroke="#111111" stroke-width="3" />
    <path d="M17 40v12M17 44l8-4M17 52l-6 5M18 52l7 5" stroke="#111111" stroke-width="4" stroke-linecap="square" />
</svg>
