<svg xmlns="http://www.w3.org/2000/svg" viewBox="0 0 64 64" role="img" aria-labelledby="title desc">
    <title id="title">KICE Arena log exponent tower favicon option</title>
    <desc id="desc">A solver attacking a clear log and exponent marker on an exam-paper field.</desc>
    <rect width="64" height="64" rx="8" fill="#fffef9" />
    <rect x="8" y="8" width="48" height="48" fill="#ffffff" stroke="#111111" stroke-width="3.5" />
    <path d="M29 50h25M35 42h19M42 34h12M48 26h6" stroke="#111111" stroke-width="5" stroke-linecap="square" />
    <path d="M29 49c7-22 15-31 26-35" fill="none" stroke="#111111" stroke-width="7" stroke-linecap="square" />
    <path d="M29 49c7-22 15-31 26-35" fill="none" stroke="#e8c93a" stroke-width="3" stroke-linecap="square" />
    <rect x="45" y="13" width="10" height="10" fill="#ffffff" stroke="#111111" stroke-width="2.5" />
    <text x="30" y="29" fill="#111111" font-family="Arial, sans-serif" font-size="9" font-weight="800">log</text>
    <text x="47" y="21" fill="#111111" font-family="Arial, sans-serif" font-size="7" font-weight="800">x</text>
    <circle cx="17" cy="36" r="5" fill="#e8c93a" stroke="#111111" stroke-width="3" />
    <path d="M17 41v11M17 45l8-4M17 52l-6 5M18 52l7 5" stroke="#111111" stroke-width="4" stroke-linecap="square" />
</svg>
